<svg width="705" height="117" viewBox="0 0 705 117" fill="none" xmlns="http://www.w3.org/2000/svg">
<path d="M29.6875 115.391H9.60938L9.76562 96.4844H29.6875C35.2083 96.4844 39.5052 95.4948 42.5781 93.5156C45.651 91.5365 47.8125 88.4115 49.0625 84.1406C50.3646 79.8698 51.0156 74.2708 51.0156 67.3438V49.6094C51.0156 44.349 50.6771 39.8958 50 36.25C49.3229 32.5521 48.1771 29.5833 46.5625 27.3438C44.9479 25.0521 42.7865 23.3594 40.0781 22.2656C37.3698 21.1719 34.0104 20.625 30 20.625H9.21875V1.64062H30C36.5625 1.64062 42.526 2.70833 47.8906 4.84375C53.2552 6.97917 57.8646 10.1042 61.7188 14.2188C65.5729 18.2812 68.5417 23.3073 70.625 29.2969C72.7083 35.2865 73.75 42.1094 73.75 49.7656V67.3438C73.75 75.0521 72.7083 81.875 70.625 87.8125C68.5417 93.75 65.5729 98.776 61.7188 102.891C57.9167 106.953 53.3073 110.052 47.8906 112.188C42.474 114.323 36.4062 115.391 29.6875 115.391ZM22.8906 1.64062V115.391H0V1.64062H22.8906ZM86.875 76.0156V70.3125C86.875 63.6979 87.6562 57.8385 89.2188 52.7344C90.8333 47.6302 93.125 43.3594 96.0938 39.9219C99.0625 36.4323 102.63 33.8021 106.797 32.0312C111.016 30.2083 115.729 29.2969 120.938 29.2969C126.198 29.2969 130.911 30.2083 135.078 32.0312C139.297 33.8021 142.891 36.4323 145.859 39.9219C148.88 43.3594 151.198 47.6302 152.812 52.7344C154.427 57.8385 155.234 63.6979 155.234 70.3125V76.0156C155.234 82.5781 154.427 88.4115 152.812 93.5156C151.198 98.6198 148.88 102.917 145.859 106.406C142.891 109.896 139.323 112.526 135.156 114.297C130.99 116.068 126.302 116.953 121.094 116.953C115.885 116.953 111.172 116.068 106.953 114.297C102.786 112.526 99.1927 109.896 96.1719 106.406C93.151 102.917 90.8333 98.6198 89.2188 93.5156C87.6562 88.4115 86.875 82.5781 86.875 76.0156ZM108.75 70.3125V76.0156C108.75 79.9219 109.01 83.3073 109.531 86.1719C110.104 89.0365 110.911 91.4062 111.953 93.2812C113.047 95.1562 114.349 96.5365 115.859 97.4219C117.37 98.3073 119.115 98.75 121.094 98.75C123.073 98.75 124.844 98.3073 126.406 97.4219C127.969 96.5365 129.245 95.1562 130.234 93.2812C131.276 91.4062 132.031 89.0365 132.5 86.1719C133.021 83.3073 133.281 79.9219 133.281 76.0156V70.3125C133.281 66.5104 132.995 63.1771 132.422 60.3125C131.849 57.3958 131.042 55.026 130 53.2031C128.958 51.3281 127.656 49.9219 126.094 48.9844C124.583 47.9948 122.865 47.5 120.938 47.5C119.01 47.5 117.292 47.9948 115.781 48.9844C114.323 49.9219 113.047 51.3281 111.953 53.2031C110.911 55.026 110.104 57.3958 109.531 60.3125C109.01 63.1771 108.75 66.5104 108.75 70.3125ZM199.609 98.75C201.641 98.75 203.385 98.3333 204.844 97.5C206.354 96.6667 207.5 95.3125 208.281 93.4375C209.062 91.5625 209.479 89.1406 209.531 86.1719H230.078C230.078 92.526 228.724 98.0208 226.016 102.656C223.359 107.24 219.766 110.781 215.234 113.281C210.755 115.729 205.677 116.953 200 116.953C194.323 116.953 189.375 116.042 185.156 114.219C180.938 112.396 177.448 109.74 174.688 106.25C171.979 102.76 169.922 98.5156 168.516 93.5156C167.161 88.4635 166.484 82.6823 166.484 76.1719V70C166.484 63.5938 167.161 57.8646 168.516 52.8125C169.922 47.7604 171.979 43.4896 174.688 40C177.448 36.5104 180.911 33.8542 185.078 32.0312C189.297 30.2083 194.245 29.2969 199.922 29.2969C206.016 29.2969 211.302 30.5729 215.781 33.125C220.26 35.625 223.75 39.3229 226.25 44.2188C228.802 49.1146 230.078 55.1562 230.078 62.3438H209.531C209.479 59.1146 209.089 56.4323 208.359 54.2969C207.682 52.1094 206.615 50.4427 205.156 49.2969C203.75 48.099 201.875 47.5 199.531 47.5C197.083 47.5 195.104 48.0208 193.594 49.0625C192.135 50.0521 191.016 51.5104 190.234 53.4375C189.505 55.3125 189.01 57.6562 188.75 60.4688C188.49 63.2812 188.359 66.4583 188.359 70V76.1719C188.359 79.974 188.464 83.2812 188.672 86.0938C188.932 88.8542 189.427 91.1979 190.156 93.125C190.938 95 192.057 96.4062 193.516 97.3438C195.026 98.2812 197.057 98.75 199.609 98.75ZM279.531 30.8594V47.3438H236.406V30.8594H279.531ZM246.328 10H268.125V89.6094C268.125 91.9531 268.359 93.75 268.828 95C269.297 96.25 270 97.1354 270.938 97.6562C271.927 98.125 273.229 98.3594 274.844 98.3594C275.938 98.3594 276.953 98.3073 277.891 98.2031C278.828 98.0469 279.531 97.8906 280 97.7344V114.844C278.281 115.521 276.458 116.042 274.531 116.406C272.656 116.771 270.417 116.953 267.812 116.953C263.438 116.953 259.635 116.12 256.406 114.453C253.229 112.786 250.755 110.13 248.984 106.484C247.214 102.786 246.328 97.9427 246.328 91.9531V10ZM286.875 76.0156V70.3125C286.875 63.6979 287.656 57.8385 289.219 52.7344C290.833 47.6302 293.125 43.3594 296.094 39.9219C299.062 36.4323 302.63 33.8021 306.797 32.0312C311.016 30.2083 315.729 29.2969 320.938 29.2969C326.198 29.2969 330.911 30.2083 335.078 32.0312C339.297 33.8021 342.891 36.4323 345.859 39.9219C348.88 43.3594 351.198 47.6302 352.812 52.7344C354.427 57.8385 355.234 63.6979 355.234 70.3125V76.0156C355.234 82.5781 354.427 88.4115 352.812 93.5156C351.198 98.6198 348.88 102.917 345.859 106.406C342.891 109.896 339.323 112.526 335.156 114.297C330.99 116.068 326.302 116.953 321.094 116.953C315.885 116.953 311.172 116.068 306.953 114.297C302.786 112.526 299.193 109.896 296.172 106.406C293.151 102.917 290.833 98.6198 289.219 93.5156C287.656 88.4115 286.875 82.5781 286.875 76.0156ZM308.75 70.3125V76.0156C308.75 79.9219 309.01 83.3073 309.531 86.1719C310.104 89.0365 310.911 91.4062 311.953 93.2812C313.047 95.1562 314.349 96.5365 315.859 97.4219C317.37 98.3073 319.115 98.75 321.094 98.75C323.073 98.75 324.844 98.3073 326.406 97.4219C327.969 96.5365 329.245 95.1562 330.234 93.2812C331.276 91.4062 332.031 89.0365 332.5 86.1719C333.021 83.3073 333.281 79.9219 333.281 76.0156V70.3125C333.281 66.5104 332.995 63.1771 332.422 60.3125C331.849 57.3958 331.042 55.026 330 53.2031C328.958 51.3281 327.656 49.9219 326.094 48.9844C324.583 47.9948 322.865 47.5 320.938 47.5C319.01 47.5 317.292 47.9948 315.781 48.9844C314.323 49.9219 313.047 51.3281 311.953 53.2031C310.911 55.026 310.104 57.3958 309.531 60.3125C309.01 63.1771 308.75 66.5104 308.75 70.3125ZM390.938 49.6875V115.391H369.062V30.8594H389.688L390.938 49.6875ZM410.859 30.2344L410.547 52.0312C409.557 51.8229 408.359 51.6667 406.953 51.5625C405.599 51.4583 404.401 51.4062 403.359 51.4062C400.911 51.4062 398.828 51.7969 397.109 52.5781C395.391 53.3073 393.958 54.4271 392.812 55.9375C391.719 57.3958 390.885 59.2188 390.312 61.4062C389.74 63.5938 389.401 66.0677 389.297 68.8281L385.156 67.2656C385.156 61.7448 385.573 56.6927 386.406 52.1094C387.292 47.474 388.594 43.4635 390.312 40.0781C392.031 36.6406 394.089 33.9844 396.484 32.1094C398.932 30.2344 401.693 29.2969 404.766 29.2969C405.807 29.2969 406.901 29.401 408.047 29.6094C409.245 29.7656 410.182 29.974 410.859 30.2344ZM477.344 77.5H500.078C499.766 86.0417 498.047 93.2552 494.922 99.1406C491.797 104.974 487.344 109.401 481.562 112.422C475.833 115.443 468.906 116.953 460.781 116.953C454.479 116.953 448.88 115.911 443.984 113.828C439.089 111.693 434.922 108.568 431.484 104.453C428.047 100.339 425.443 95.2604 423.672 89.2188C421.953 83.125 421.094 76.1198 421.094 68.2031V48.9062C421.094 40.9896 422.005 33.9844 423.828 27.8906C425.703 21.7969 428.359 16.6927 431.797 12.5781C435.286 8.41146 439.479 5.28646 444.375 3.20312C449.323 1.06771 454.896 0 461.094 0C469.375 0 476.302 1.5625 481.875 4.6875C487.448 7.8125 491.745 12.3698 494.766 18.3594C497.839 24.2969 499.688 31.5625 500.312 40.1562H477.5C477.344 34.7396 476.719 30.4948 475.625 27.4219C474.583 24.2969 472.917 22.1094 470.625 20.8594C468.333 19.5573 465.156 18.9062 461.094 18.9062C458.073 18.9062 455.469 19.4531 453.281 20.5469C451.094 21.5885 449.297 23.2812 447.891 25.625C446.484 27.9688 445.443 31.0417 444.766 34.8438C444.141 38.6458 443.828 43.2812 443.828 48.75V68.2031C443.828 73.5677 444.115 78.151 444.688 81.9531C445.26 85.7031 446.172 88.776 447.422 91.1719C448.672 93.5677 450.365 95.3125 452.5 96.4062C454.688 97.5 457.448 98.0469 460.781 98.0469C464.635 98.0469 467.734 97.474 470.078 96.3281C472.474 95.1823 474.245 93.125 475.391 90.1562C476.536 87.1875 477.188 82.9688 477.344 77.5ZM550.547 95.9375V56.875C550.547 54.3229 550.234 52.2917 549.609 50.7812C549.036 49.2708 548.151 48.1771 546.953 47.5C545.807 46.7708 544.401 46.4062 542.734 46.4062C540.859 46.4062 539.297 46.7969 538.047 47.5781C536.797 48.3594 535.859 49.4792 535.234 50.9375C534.661 52.3958 534.375 54.1406 534.375 56.1719H512.422C512.422 52.526 513.125 49.0885 514.531 45.8594C515.938 42.5781 517.995 39.7135 520.703 37.2656C523.464 34.7656 526.745 32.8125 530.547 31.4062C534.349 30 538.62 29.2969 543.359 29.2969C548.984 29.2969 553.984 30.2604 558.359 32.1875C562.734 34.0625 566.198 37.0573 568.75 41.1719C571.302 45.2865 572.578 50.625 572.578 57.1875V94.8438C572.578 99.5833 572.812 103.438 573.281 106.406C573.802 109.375 574.557 111.927 575.547 114.062V115.391H553.516C552.526 113.047 551.771 110.13 551.25 106.641C550.781 103.099 550.547 99.5312 550.547 95.9375ZM553.203 63.75L553.281 76.875H545.234C543.151 76.875 541.328 77.2135 539.766 77.8906C538.255 78.5677 536.979 79.5312 535.938 80.7812C534.896 81.9792 534.115 83.3854 533.594 85C533.125 86.6146 532.891 88.3333 532.891 90.1562C532.891 92.1875 533.177 93.9062 533.75 95.3125C534.323 96.7188 535.182 97.7865 536.328 98.5156C537.474 99.2448 538.828 99.6094 540.391 99.6094C542.786 99.6094 544.87 99.1146 546.641 98.125C548.411 97.1354 549.714 95.9375 550.547 94.5312C551.432 93.125 551.719 91.8229 551.406 90.625L556.406 99.1406C555.781 101.068 554.922 103.073 553.828 105.156C552.786 107.24 551.458 109.167 549.844 110.938C548.229 112.708 546.224 114.167 543.828 115.312C541.484 116.406 538.698 116.953 535.469 116.953C530.938 116.953 526.797 115.911 523.047 113.828C519.297 111.745 516.328 108.828 514.141 105.078C512.005 101.328 510.938 96.875 510.938 91.7188C510.938 87.4479 511.615 83.5938 512.969 80.1562C514.375 76.6667 516.458 73.724 519.219 71.3281C521.979 68.8802 525.469 67.0052 529.688 65.7031C533.906 64.401 538.854 63.75 544.531 63.75H553.203ZM610.625 49.6875V115.391H588.75V30.8594H609.375L610.625 49.6875ZM630.547 30.2344L630.234 52.0312C629.245 51.8229 628.047 51.6667 626.641 51.5625C625.286 51.4583 624.089 51.4062 623.047 51.4062C620.599 51.4062 618.516 51.7969 616.797 52.5781C615.078 53.3073 613.646 54.4271 612.5 55.9375C611.406 57.3958 610.573 59.2188 610 61.4062C609.427 63.5938 609.089 66.0677 608.984 68.8281L604.844 67.2656C604.844 61.7448 605.26 56.6927 606.094 52.1094C606.979 47.474 608.281 43.4635 610 40.0781C611.719 36.6406 613.776 33.9844 616.172 32.1094C618.62 30.2344 621.38 29.2969 624.453 29.2969C625.495 29.2969 626.589 29.401 627.734 29.6094C628.932 29.7656 629.87 29.974 630.547 30.2344ZM674.219 116.953C668.438 116.953 663.307 116.068 658.828 114.297C654.401 112.526 650.651 109.974 647.578 106.641C644.505 103.255 642.161 99.1667 640.547 94.375C638.932 89.5833 638.125 84.1146 638.125 77.9688V71.0156C638.125 64.1406 638.906 58.125 640.469 52.9688C642.031 47.7604 644.245 43.3854 647.109 39.8438C649.974 36.3021 653.49 33.6719 657.656 31.9531C661.875 30.1823 666.641 29.2969 671.953 29.2969C677.266 29.2969 681.927 30.1823 685.938 31.9531C690 33.6719 693.359 36.276 696.016 39.7656C698.672 43.2031 700.677 47.474 702.031 52.5781C703.385 57.6823 704.062 63.6198 704.062 70.3906V80.3906H647.422V65H682.578V63.0469C682.578 59.6094 682.214 56.7448 681.484 54.4531C680.755 52.1094 679.609 50.3646 678.047 49.2188C676.484 48.0729 674.401 47.5 671.797 47.5C669.609 47.5 667.76 47.9427 666.25 48.8281C664.74 49.7135 663.542 51.0938 662.656 52.9688C661.771 54.8438 661.12 57.2917 660.703 60.3125C660.286 63.2812 660.078 66.849 660.078 71.0156V77.9688C660.078 81.875 660.417 85.1562 661.094 87.8125C661.771 90.4167 662.76 92.5521 664.062 94.2188C665.417 95.8333 667.057 97.0052 668.984 97.7344C670.911 98.4115 673.151 98.75 675.703 98.75C679.557 98.75 683.021 98.0729 686.094 96.7188C689.219 95.3125 691.875 93.4115 694.062 91.0156L702.812 104.297C701.302 106.276 699.219 108.255 696.562 110.234C693.906 112.214 690.729 113.828 687.031 115.078C683.333 116.328 679.062 116.953 674.219 116.953Z" fill="white"/>
</svg>
